<svg version="1.1" xmlns="http://www.w3.org/2000/svg" style="display: block;" viewBox="0 0 2048 2048" width="1024" height="1024" preserveAspectRatio="none">
<path transform="translate(0,0)" fill="rgb(25,53,35)" d="M 1007.74 367.567 C 1010.65 367.265 1013.07 367.117 1015.99 367.036 C 1175.61 363.709 1330.05 423.752 1445.5 534.024 C 1566.86 649.65 1637.5 808.623 1641.98 976.186 C 1644.36 1141.57 1581.8 1301.3 1467.75 1421.1 C 1355.75 1537.88 1205.59 1611.77 1042.65 1615.13 C 1039.86 1615.43 1037.07 1615.6 1034.28 1615.67 C 877.187 1619.4 714.629 1547.72 601.857 1440.16 C 480.436 1325.15 410.269 1166.21 407.099 998.999 C 404.196 834.028 472.646 672.795 586.466 554.419 C 696.37 438.468 848.024 371.203 1007.74 367.567 z M 1045.52 1549.75 C 1183.25 1546.47 1323.87 1478.92 1418.34 1379.63 C 1524.64 1269.37 1582.18 1121.03 1578.06 967.932 C 1574.05 819.929 1503.41 678.235 1396.16 577.647 C 1291.5 480.298 1152.74 428.029 1009.86 432.129 C 1008.1 432.187 1008.75 432.139 1007.01 432.424 C 854.728 439.893 722.424 501.729 619.968 615.109 C 525.653 719.48 465.996 869.067 473.064 1010.39 C 480.535 1162.61 548.895 1305.44 662.766 1406.74 C 767.349 1501.63 904.336 1552.82 1045.52 1549.75 z"/>
<path transform="translate(0,0)" fill="rgb(25,53,35)" d="M 1001.14 857.928 C 1079.84 851.529 1148.72 910.399 1154.66 989.138 C 1160.59 1067.88 1101.32 1136.41 1022.55 1141.88 C 944.425 1147.31 876.584 1088.63 870.697 1010.55 C 864.81 932.458 923.087 864.274 1001.14 857.928 z M 1018.51 1089.76 C 1068.51 1085.34 1105.44 1041.19 1100.94 991.194 C 1096.45 941.202 1052.25 904.338 1002.27 908.896 C 952.376 913.446 915.598 957.544 920.08 1007.44 C 924.562 1057.34 968.61 1094.18 1018.51 1089.76 z"/>
<path transform="translate(0,0)" fill="rgb(25,53,35)" d="M 1466.53 917.267 C 1485.92 915.892 1493.46 924.64 1499.62 941.52 C 1498.12 946.724 1495.6 954.517 1490.93 957.314 C 1470.46 969.595 1457.26 967.987 1452.81 996.913 C 1446.72 1036.57 1470.2 1093.13 1519.14 1084.33 C 1525.82 1083.13 1533.67 1081.72 1540.39 1082.79 C 1551.71 1084.62 1557.08 1096.87 1554.2 1107.33 C 1550.94 1119.13 1542.28 1125.9 1531.99 1131.55 C 1527.09 1133.59 1522 1135.14 1516.8 1136.16 C 1456.1 1147.9 1411.07 1091.84 1400.54 1037 C 1391.18 988.274 1411.22 926.316 1466.53 917.267 z"/>
<path transform="translate(0,0)" fill="rgb(25,53,35)" d="M 1170.33 586.181 C 1185.41 585.914 1189.03 591.547 1194.8 604.108 C 1192.06 619.21 1188.82 629.025 1196.85 643.696 C 1211.96 671.284 1250.9 678.434 1276.94 662.61 C 1295.61 651.261 1296.02 639.411 1300.71 620.763 C 1321.4 598.859 1343.05 613.854 1348.5 639.74 C 1351.94 656.133 1345.86 669.08 1336.92 682.376 C 1284.83 750.592 1161.09 732.374 1139.91 644.638 C 1134.3 621.426 1143.57 590.652 1170.33 586.181 z"/>
<path transform="translate(0,0)" fill="rgb(25,53,35)" d="M 820.4 598.299 C 831.615 598.595 844.356 600.354 852.107 608.958 C 877.318 636.942 851.661 679.949 831.917 700.411 C 808.226 725.001 775.726 739.157 741.586 739.759 C 711.139 740.089 688.239 732.499 666.544 711.184 C 652.716 695.621 641.364 672.825 651.683 651.383 C 654.241 646.068 661.825 639.793 667.522 638.329 C 671.228 637.377 676.201 637.715 679.981 638.304 C 703.371 642.355 692.929 670.251 713.889 681.647 C 727.577 689.089 741.323 689.639 755.965 685.874 C 776.749 680.529 799.963 663.907 802.933 641.307 C 804.377 630.322 799.49 616.675 805.579 606.812 C 808.792 601.609 814.702 599.484 820.4 598.299 z"/>
<path transform="translate(0,0)" fill="rgb(25,53,35)" d="M 578.434 918.244 C 580.618 918.088 582.807 918.002 584.997 917.986 C 629.633 918.115 641.153 972.998 639.08 1007.74 C 636.843 1045.24 626.944 1082.25 598.202 1108.54 C 577.793 1127.21 561.186 1129.88 534.764 1128.72 C 519.955 1125.71 499.459 1117.74 501.483 1098.12 C 502.246 1090.71 508.473 1086.03 514.315 1082.21 C 525.088 1081.75 539.782 1085.39 549.517 1081.23 C 562.479 1075.7 572.378 1061.22 577.812 1047.72 C 586.173 1026.96 591.172 988.914 577.336 969.182 C 572.084 963.02 560.578 958.483 558.089 950.281 C 553.151 934.009 563.786 923.176 578.434 918.244 z"/>
<path transform="translate(0,0)" fill="rgb(25,53,35)" d="M 817.697 1316.37 C 833.679 1313.18 857.7 1319.57 871.351 1328.6 C 887.016 1338.6 897.957 1352.04 902.657 1370.27 C 906.188 1383.97 898.939 1408.87 882.302 1410.97 C 849.323 1415.13 863.314 1379.07 843.975 1365.8 C 829.088 1355.58 803.586 1356.27 792.811 1372.92 C 785.632 1384.02 786.818 1393.65 789.271 1405.87 C 792.01 1417.44 799.307 1426.12 807.119 1434.69 C 814.363 1441.93 820.921 1454.32 813.805 1463.99 C 798.624 1484.61 775.438 1472.82 764.143 1455.49 C 755.191 1442.26 749.34 1427.62 746.961 1411.71 C 739.032 1358.68 765.764 1323.93 817.697 1316.37 z"/>
<path transform="translate(0,0)" fill="rgb(25,53,35)" d="M 1226.7 1304.41 C 1269.02 1301.04 1331.12 1329.91 1338.95 1376.38 C 1343.06 1400.73 1312.13 1415.48 1301.96 1398.7 C 1287.36 1374.63 1277.57 1356.56 1245.53 1353.72 C 1220.57 1353.57 1195.61 1360.52 1186.55 1387.57 C 1184.58 1393.44 1183.85 1399.3 1180.82 1404.79 C 1174.09 1416.95 1158.92 1416.13 1148.76 1409.02 C 1141.9 1404.02 1139.26 1396.28 1138.26 1388.21 C 1134.35 1356.68 1156.73 1330.93 1182.83 1316.72 C 1196.85 1309.08 1210.95 1306.21 1226.7 1304.41 z"/>
</svg>