<svg version="1.1" xmlns="http://www.w3.org/2000/svg" style="display: block;" viewBox="0 0 2048 2048" width="1024" height="1024" preserveAspectRatio="none">
<path transform="translate(0,0)" fill="rgb(26,61,40)" d="M 1023.98 412.468 C 1107.88 410.896 1184.59 437.088 1248.98 491.977 C 1310.55 544.459 1351.8 618.803 1362.33 699.417 C 1364.36 714.986 1363.58 739.518 1363.56 756.086 L 1363.45 841.141 C 1363.43 864.719 1362.81 895.816 1364.09 918.975 C 1364.81 931.898 1376.34 969.413 1380.88 982.858 C 1391.42 1013.58 1405.22 1043.08 1422.04 1070.86 C 1444.65 1108.69 1485.66 1148.98 1491.36 1192.5 C 1495.65 1225.27 1467.24 1258.94 1434.37 1260.58 C 1416.53 1261.47 1397.82 1261.27 1379.46 1261.26 L 1272.42 1261.16 C 1254.66 1261.15 1231.02 1260.42 1213.88 1261.66 C 1212.92 1274.82 1213.56 1288.66 1213.01 1302.01 C 1210.41 1365.62 1161.53 1419.2 1104.84 1442.97 C 1086.56 1450.63 1067.84 1454.13 1048.25 1456.36 C 1044.12 1457 1036.19 1457.13 1031.91 1457.15 C 980.483 1457.18 931.145 1436.82 894.715 1400.52 C 848.785 1354.53 850.556 1321.58 850.73 1262 C 832.808 1260.48 808.095 1261.16 789.404 1261.15 L 684.007 1261.19 C 665.891 1261.2 638.847 1262.76 621.848 1259.27 C 585.465 1251.78 566.927 1211.19 579.681 1177.35 C 586.252 1159.66 597.03 1142.9 607.697 1127.33 C 640.287 1079.76 669.123 1028.21 687.17 973.246 C 691.619 959.696 700.3 933.68 701.556 920.121 C 703.651 897.513 702.502 867.775 702.47 844.929 L 702.334 766.15 C 702.308 750.094 701.751 730.744 703.053 714.943 C 709.295 639.196 740.816 572.394 792.44 516.944 C 852.521 452.527 935.925 414.893 1023.98 412.468 z M 1041.79 1192.36 L 1281.18 1192.42 C 1319.32 1192.4 1357.75 1192.27 1395.92 1192.29 C 1400.13 1192.29 1409.31 1191.2 1412.65 1188.91 C 1413.9 1186.23 1414.66 1182.33 1413.17 1179.87 C 1407.06 1169.8 1397.78 1158.74 1390.76 1149.13 C 1381.6 1136.68 1372.93 1123.87 1364.79 1110.73 C 1331.41 1057.58 1311.26 990.811 1295.51 929.823 C 1290.66 911.068 1293.13 864.587 1293.15 843.128 L 1293.17 765.999 C 1293.15 747.687 1293.75 726.859 1291.24 708.962 C 1277.46 611.642 1210.29 530.258 1117.35 498.265 C 1089.05 488.596 1050.17 481.637 1020.18 484.579 C 948.556 489.186 885.21 519.261 837.754 573.505 C 801.922 613.774 779.72 664.33 774.316 717.962 C 772.811 734.394 773.344 758.46 773.319 775.437 L 773.247 860.741 C 773.24 872.194 774.899 908.127 772.78 917.568 C 764.14 956.049 749.461 1006.2 734.617 1041.88 C 717.517 1082.57 695.68 1121.11 669.557 1156.69 C 663.94 1164.27 648.336 1180.54 653.457 1189.79 C 663.758 1194 715.458 1192.44 730.233 1192.41 L 854.765 1192.31 L 978.923 1192.35 C 997.322 1192.35 1023.98 1193.29 1041.79 1192.36 z M 1107.86 1360.82 C 1133.96 1335.37 1142.27 1315.66 1142.91 1278.29 C 1143.01 1272.78 1143.6 1267.02 1140.23 1262.68 C 1132.03 1259.34 947.41 1261.18 924.943 1261.15 C 917.547 1266.57 920.625 1276.95 920.52 1285.24 C 919.817 1340.88 966.366 1382.25 1019.96 1388.4 C 1049.9 1392.08 1080.05 1383.48 1103.55 1364.58 C 1105.04 1363.38 1106.47 1362.13 1107.86 1360.82 z"/>
</svg>