<svg version="1.1" xmlns="http://www.w3.org/2000/svg" style="display: block;" viewBox="0 0 2048 2048" width="1024" height="1024" preserveAspectRatio="none">
<path transform="translate(0,0)" fill="rgb(39,67,51)" d="M 805.336 976.438 C 807.873 976.18 810.817 976.105 813.383 976.115 C 926.143 976.551 1044.68 1008.86 1126.91 1089.27 C 1184.99 1146.08 1217.76 1216.43 1217.83 1298 C 1217.55 1335.97 1211.55 1371.78 1183.59 1399.51 C 1155.32 1427.55 1132.06 1426.05 1095.51 1426.03 L 1038.85 1426.02 L 824.752 1425.99 L 593.471 1426.01 L 529.288 1426.05 C 508.63 1426.05 484.205 1428.2 465.842 1418.03 C 416.429 1390.69 408.385 1337.54 410.3 1286.26 C 412.862 1217.63 439.947 1157.9 485.128 1107.15 C 550.088 1034.18 642.855 995.602 737.935 981.61 C 760.288 978.349 782.784 977.659 805.336 976.438 z"/>
<path transform="translate(0,0)" fill="rgb(39,67,51)" d="M 1347.6 990.426 C 1351.07 990.062 1355.55 990.152 1359.21 990.126 C 1521.44 989.327 1706.65 1119.15 1710.28 1291.82 C 1711.4 1345.07 1697.44 1386.25 1650.2 1416.44 C 1631.87 1428.16 1609.3 1425.59 1588.38 1425.54 L 1530.5 1425.47 L 1380.14 1425.54 C 1376.27 1425.54 1366.51 1426.13 1362.47 1425.53 C 1348.11 1423.4 1304.36 1430.78 1295.59 1418.51 C 1289.73 1410.31 1309.01 1385.8 1311.84 1375.64 C 1344.98 1256.31 1304.26 1121.84 1199.47 1051.26 C 1169.76 1031.11 1286.79 997.968 1298.48 996.262 C 1312.73 994.183 1332.2 991.833 1347.6 990.426 z"/>
<path transform="translate(0,0)" fill="rgb(39,67,51)" d="M 796.658 442.43 C 848.901 436.294 907.515 460.119 945.472 495.243 C 991.355 537.206 1018.36 595.914 1020.36 658.059 C 1022.98 726.38 1005.78 782.65 958.854 834.462 C 924.74 872.124 873.21 899.404 821.752 901.227 C 771.524 905.597 717.323 885.117 679.738 852.514 C 630.405 809.72 604.77 755.863 599.17 691.713 C 593.309 627.571 613.397 563.755 654.944 514.535 C 691.154 471.689 741.015 447.048 796.658 442.43 z"/>
<path transform="translate(0,0)" fill="rgb(39,67,51)" d="M 1337.75 503.512 C 1381.12 501.376 1422.1 513.919 1455.75 541.674 C 1498.04 576.133 1524.65 626.195 1529.55 680.529 C 1539.76 793.259 1471.35 897.239 1353.91 906.767 C 1305.96 907.229 1268.15 894.748 1231.25 863.43 C 1101.86 753.602 1156.72 514.002 1337.75 503.512 z"/>
</svg>