<svg version="1.1" xmlns="http://www.w3.org/2000/svg" style="display: block;" viewBox="0 0 2048 2048" width="1024" height="1024" preserveAspectRatio="none">
<path transform="translate(0,0)" fill="rgb(34,69,50)" d="M 1020.07 903.581 C 1023.3 903.141 1028.47 902.818 1031.83 902.846 C 1113.94 903.544 1190.33 940.607 1248.37 996.575 C 1336.1 1081.16 1369.53 1201.3 1371.92 1319.99 C 1372.44 1345.92 1372.53 1406.05 1365.18 1428.22 C 1361.37 1439.47 1355.01 1449.69 1346.61 1458.09 C 1319.13 1485.73 1259.31 1503.95 1220.69 1509.04 C 1200.76 1511.66 1170.03 1510.98 1149.24 1510.97 L 1049.5 1510.95 L 939.868 1510.98 C 919.445 1510.97 884.738 1511.82 865.287 1508.83 C 817.131 1501.42 756.549 1478.41 718.843 1447.19 C 706.215 1435.97 699.744 1421.39 699.106 1404.53 C 693.961 1268.64 715.855 1115.98 809.327 1010.77 C 863.014 950.343 938.771 908.007 1020.07 903.581 z"/>
<path transform="translate(0,0)" fill="rgb(34,69,50)" d="M 659.66 910.423 C 662.57 910.265 665.482 910.17 668.395 910.138 C 678.695 910.064 760.278 913.199 744.735 941.218 C 741.706 946.678 724.275 964.742 718.995 971.365 C 699.807 995.384 683.08 1021.27 669.065 1048.63 C 628.093 1130.34 608.297 1220.4 603.366 1311.35 C 602.581 1325.48 602.217 1339.64 602.274 1353.79 C 602.342 1363.7 605.406 1385.12 596.748 1391.56 C 590.357 1396.31 575.765 1396.68 567.644 1396.23 C 544.362 1394.94 517.498 1397.98 494.564 1395.22 C 436.174 1384.32 409.889 1324.31 405.221 1270.8 C 390.288 1099.6 473.144 928.421 659.66 910.423 z"/>
<path transform="translate(0,0)" fill="rgb(34,69,50)" d="M 1396.09 913.589 C 1488.94 903.961 1574.95 972.234 1619.33 1048.3 C 1671.32 1137.41 1697.96 1335.84 1583.95 1388 C 1559.37 1398.9 1543.67 1395.69 1516.97 1396.23 C 1504.58 1396.49 1489.54 1396.63 1477.28 1395.64 C 1475.74 1394.7 1474.25 1393.66 1472.83 1392.53 C 1468.72 1389.3 1466.74 1385.54 1466.53 1380.29 C 1465.73 1360.71 1467.31 1340.62 1466.91 1320.9 C 1466.29 1270.67 1459.65 1220.69 1447.15 1172.03 C 1428.22 1099.01 1396.36 1031.34 1347.98 973.083 C 1330.88 952.495 1302.37 935.468 1349.12 922.053 C 1365.89 917.24 1378.44 914.677 1396.09 913.589 z"/>
<path transform="translate(0,0)" fill="rgb(34,69,50)" d="M 1011.71 504.317 C 1049.42 500.178 1085.21 507.57 1116.39 529.72 C 1150.71 554.607 1173.88 591.977 1180.91 633.782 C 1188.5 681.398 1180.21 728.046 1151.08 766.942 C 1126.98 799.131 1093.9 820.649 1054 826.731 C 1014.71 830.425 981.758 825.317 948.757 802.296 C 913.825 777.806 889.959 740.53 882.34 698.554 C 866.45 607.164 917.227 519.742 1011.71 504.317 z"/>
<path transform="translate(0,0)" fill="rgb(34,69,50)" d="M 1422.73 503.44 C 1461.35 504.337 1493.01 516.578 1520.94 543.782 C 1617.66 637.983 1565.34 825.128 1420.74 825.931 C 1385.39 825.797 1351.37 812.38 1325.45 788.341 C 1244.72 714.009 1257.54 571.807 1356.15 519.384 C 1378.47 507.521 1397.95 504.317 1422.73 503.44 z"/>
<path transform="translate(0,0)" fill="rgb(34,69,50)" d="M 631.399 504.381 C 666.187 500.004 701.347 508.883 729.885 529.253 C 764.775 554.762 787.967 593.207 794.259 635.967 C 807.694 724.531 757.745 811.322 665.586 825.265 C 627.898 828.111 595.289 821.204 564.59 798.195 C 530.329 772.238 507.83 733.693 502.075 691.096 C 495.441 644.335 505.971 598.291 534.753 560.595 C 558.123 529.652 592.947 509.396 631.399 504.381 z"/>
</svg>