<svg version="1.1" xmlns="http://www.w3.org/2000/svg" style="display: block;" viewBox="0 0 2048 2048" width="1024" height="1024" preserveAspectRatio="none">
<path transform="translate(0,0)" fill="rgb(37,67,50)" d="M 1006.62 256.42 C 1097.13 250.364 1200.9 277.992 1277.7 325.901 C 1386.4 394.694 1463.62 503.543 1492.63 628.868 C 1528.71 785.6 1492.77 902.459 1422.7 1040.76 C 1393.51 1097.82 1361.83 1153.56 1327.76 1207.84 C 1268.11 1303.25 1204.01 1395.79 1135.68 1485.18 C 1119.25 1506.8 1099.59 1534.09 1080.71 1553.54 C 1072.44 1562.05 1057.54 1566.19 1046.22 1568.79 C 987.87 1574.44 976.87 1552.36 944.922 1510.53 C 922.704 1481.59 900.836 1452.38 879.323 1422.91 C 795.588 1309.02 713.758 1192.52 645.137 1068.8 C 596.885 981.796 555.032 892.197 546.846 791.738 C 535.85 656.782 577.553 520.313 666.971 417.95 C 733.566 340.511 823.896 287.265 923.898 266.5 C 954.034 260.325 976.298 258.47 1006.62 256.42 z M 1037.5 982.091 C 1165.58 976.164 1264.59 867.522 1258.65 739.445 C 1252.7 611.369 1144.04 512.37 1015.97 518.335 C 887.918 524.3 788.944 632.929 794.89 760.978 C 800.835 889.027 909.449 988.017 1037.5 982.091 z"/>
</svg>