<svg version="1.1" xmlns="http://www.w3.org/2000/svg" style="display: block;" viewBox="0 0 2048 2048" width="1024" height="1024" preserveAspectRatio="none">
<path transform="translate(0,0)" fill="rgb(31,63,45)" d="M 669.419 361.5 C 685.156 359.828 725.976 360.962 744.397 360.982 L 887.075 360.913 L 1363.77 360.704 C 1426.44 360.421 1473.53 358.402 1530.63 390.765 C 1614.07 438.054 1659.13 518.331 1659.3 613.856 L 1659.24 982.7 L 1659.28 1082.81 C 1659.31 1114.08 1660.88 1150.31 1654.26 1180.49 C 1644.56 1222.91 1623.06 1261.72 1592.23 1292.43 C 1561.44 1323.2 1522.96 1345.15 1480.8 1355.99 C 1437.86 1366.9 1378.13 1363.74 1332.43 1363.76 L 1159.5 1363.73 L 1099.96 1363.58 C 1035.78 1424.67 970.329 1484.42 903.648 1542.78 L 856.86 1584.53 C 839.591 1599.92 828.845 1614.04 803.759 1614.92 C 762.532 1616.37 733.683 1614.47 733.046 1564.2 C 732.205 1497.85 734.286 1430.46 733.119 1363.94 C 665.382 1362.41 613.517 1371.55 550.368 1339.8 C 531.217 1330.25 513.482 1318.09 497.669 1303.67 C 451.226 1262.23 423.778 1203.58 421.716 1141.38 C 421.251 1130.6 421.911 1118.44 421.992 1107.53 L 422.099 1048.19 L 422.072 838.561 L 422.043 689.112 C 422.044 650.341 419.965 601.084 428.103 564.132 C 438.511 518.906 460.634 477.214 492.25 443.242 C 530.235 402.067 581.155 373.702 636.551 363.951 C 646.986 362.114 658.741 361.934 669.419 361.5 z M 813.135 1506.72 C 819.421 1505.67 828.655 1504.54 833.553 1500.69 C 849.959 1487.79 866.722 1471.02 882.245 1456.96 C 928.383 1415.19 974.052 1372.9 1019.24 1330.1 C 1027.94 1321.85 1063.56 1286.16 1070.33 1285.32 C 1103.6 1281.22 1160.33 1283.37 1193.91 1283.23 L 1349.19 1283.24 C 1421.14 1283.26 1478.79 1291.69 1534.55 1235.5 C 1556.31 1213.48 1570.9 1185.41 1576.41 1154.95 C 1580.04 1135.83 1579.02 1103.43 1579.02 1082.63 L 1578.96 977.508 C 1578.88 857.751 1578.85 737.846 1579.01 618.202 C 1579.13 533.629 1525.06 460.996 1440.83 445.492 C 1414.76 440.693 1373.37 442.956 1346.06 442.966 L 1184.52 443.004 L 842.635 443.042 C 785.248 443.053 727.721 442.838 670.332 443.149 C 668.677 443.158 667.14 443.179 665.506 443.407 C 616.838 448.311 574.315 470.049 543.356 508.317 C 523.585 532.641 510.452 561.672 505.237 592.581 C 501.032 618.122 502.156 669.554 502.143 696.533 L 502.246 866.31 L 502.171 1044.15 C 502.153 1078.62 501.198 1117.3 504.169 1151.23 C 507.386 1187.96 531.048 1227.71 560.15 1250.16 C 603.553 1283.64 632.629 1283.43 683.473 1283.51 C 706.102 1283.58 728.73 1283.53 751.359 1283.36 C 773.917 1283.16 811.709 1278.8 812.691 1310.32 C 814.711 1375.15 811.43 1441.96 813.135 1506.72 z"/>
</svg>