<svg version="1.1" xmlns="http://www.w3.org/2000/svg" style="display: block;" viewBox="0 0 2048 2048" width="1024" height="1024" preserveAspectRatio="none">
<path transform="translate(0,0)" fill="rgb(30,58,41)" d="M 1232.62 337.447 C 1259.68 336.096 1289.08 342.502 1314.53 350.648 C 1377.19 370.701 1415.94 421.175 1459.26 467.12 C 1486.54 495.072 1514.68 526.178 1544.6 551.406 C 1639.78 631.656 1671.14 773.04 1612.78 883.947 C 1595.14 917.45 1568.32 942.88 1542.2 970.442 L 1472.17 1044.5 L 1391.59 1131.54 C 1361.81 1164.18 1316.59 1219.93 1279.43 1240.25 C 1208.73 1278.89 1112.29 1275.17 1036.82 1252.6 C 1017.76 1246.91 997.652 1233.08 977.502 1231.6 C 952.861 1230.12 922.139 1270.83 905.505 1275.05 C 857.621 1287.19 875.215 1283.1 851.056 1322.56 C 839.381 1341.63 809.465 1372.37 792.235 1390.58 C 768.966 1417.6 742.393 1444.06 718.229 1470.4 C 705.297 1484.5 683.68 1508.03 668.536 1518.22 C 660.797 1523.4 651.81 1526.41 642.512 1526.93 C 623.756 1528.09 606.378 1519.71 593.094 1506.56 C 569.197 1482.92 477.876 1403.18 511.376 1367.14 C 562.026 1312.87 615.706 1260.8 667.221 1207.23 C 689.578 1184.67 718.22 1166.1 735.221 1138.72 C 747.609 1118.77 758.222 1095.96 771.515 1076.26 C 773.254 1073.68 775.822 1052.43 776.211 1047.87 C 778.425 1021.89 783.531 994.803 783.238 968.744 C 781.227 957.31 772.623 944.087 769.63 933.284 C 750.195 863.147 754.16 777.961 789.928 713.952 C 808.908 679.985 838.856 651.732 864.934 624.455 C 890.18 598.171 915.239 571.709 940.112 545.072 C 979.849 502.385 1018.26 458.989 1057.37 415.786 C 1108.52 359.291 1157.92 339.936 1232.62 337.447 z M 1171.76 1200.41 C 1252.38 1192.75 1270.01 1168.83 1320.88 1113.16 C 1344.55 1087.22 1368.36 1061.41 1392.32 1035.74 L 1488.73 933.195 C 1505.29 915.712 1522.97 898.292 1538.8 880.324 C 1573.11 841.356 1584.64 784.262 1576.66 733.855 C 1568.65 677.126 1545.52 638.992 1503.04 601.805 C 1461.66 565.453 1424.32 525.497 1387.34 484.764 C 1373.48 469.507 1359.77 454.233 1344.13 440.772 C 1312.68 413.696 1260.14 397.695 1218.79 402.591 C 1139.12 409.919 1124.48 437.299 1074.85 492.513 L 982.497 593.918 C 958.499 619.818 934.277 645.51 909.835 670.992 C 894.038 687.421 874.986 706.169 861.752 722.22 C 822.787 769.484 815.199 835.235 824.862 893.826 C 827.562 910.191 832.285 920.932 840.424 935.496 C 849.671 962.077 857.93 993.663 857.769 1021.77 C 857.582 1037.2 846.253 1075.55 852.159 1084.22 C 864.384 1087.02 885.223 1086.35 896.017 1092.59 C 946.22 1121.58 976.768 1160.59 1033.54 1179.06 C 1080.94 1194.47 1120.97 1205.67 1171.76 1200.41 z M 574.618 1399.8 C 589.054 1416.15 618.319 1448.35 634.078 1462.44 C 639.645 1460.94 666.938 1429.99 672.524 1423.99 L 729.542 1362.91 C 749.514 1341.61 769.358 1320.18 789.072 1298.64 C 795.871 1291.23 805.845 1281.44 811.887 1274.2 L 811.025 1273.4 C 798.202 1261.68 788.881 1256.76 776.093 1242.5 C 769.874 1235.56 758.079 1217.23 754.251 1213.6 C 740.421 1226.94 726.31 1242.84 712.99 1256.91 L 657.405 1314.5 L 603.368 1369.91 C 594.71 1378.79 582.495 1390.62 574.618 1399.8 z M 877.615 1215.03 C 891.471 1201.58 897.475 1198.04 911.906 1186.88 C 894.696 1170.2 871.399 1153.57 853.976 1136.12 C 849.214 1131.36 843.237 1129.46 836.519 1130.07 C 816.441 1141.6 800.534 1166.95 815.229 1187.4 C 829.307 1207 853.054 1234.09 877.615 1215.03 z"/>
</svg>