<svg version="1.1" xmlns="http://www.w3.org/2000/svg" style="display: block;" viewBox="0 0 2048 2048" width="1024" height="1024" preserveAspectRatio="none">
<path transform="translate(0,0)" fill="rgb(24,54,32)" d="M 744.678 388.431 C 755.479 388.155 766.286 388.273 777.078 388.785 C 860.256 392.667 932.128 418.686 991.56 479.588 C 1008.18 496.614 1019.45 518.326 1033.06 532.921 L 1034.13 534.06 C 1043.71 526.428 1051.27 514.827 1058.86 505.132 C 1122.22 424.188 1205.34 388.48 1307.41 388.715 C 1475.19 389.102 1600.27 523.2 1624.62 682.687 C 1627.82 706.595 1627.53 730.141 1627.68 754.207 C 1628.91 944.108 1483.07 1101.47 1368.07 1238.27 C 1342.4 1268.8 1304.64 1309.81 1275.58 1337.63 C 1274.88 1338.52 1274.17 1339.41 1273.44 1340.28 C 1264.98 1350.58 1252.07 1362.22 1242.39 1371.91 C 1221.98 1392.35 1201.55 1411.29 1180.11 1430.64 C 1149.49 1458.29 1118.39 1487.29 1085.29 1512 C 1079.25 1516.5 1065.17 1524.48 1057.72 1524.74 C 1038.67 1525.22 1009 1528.91 992.023 1518.3 C 964.019 1500.79 936.811 1475.6 911.633 1454.1 C 864.828 1414.12 821.122 1371.23 777.606 1327.85 C 703.098 1253.58 632.098 1175.28 569.213 1090.86 C 549.601 1064.49 523.419 1027.93 506.877 999.928 C 474.34 944.848 441.309 868.416 436.904 804.241 C 434.749 772.851 433.983 713.7 438.72 683.068 C 448.93 617.044 478.848 552.95 522.237 502.195 C 566.559 450.349 623.601 411.735 690.482 396.074 C 702.384 393.287 732.582 389.44 744.678 388.431 z M 1266.67 1242.6 C 1312.42 1194.57 1355.96 1144.48 1397.16 1092.49 C 1457.47 1016.93 1521.35 933.851 1547.26 838.995 C 1556.34 805.627 1555.94 770.211 1556.13 736.02 C 1556.55 657.448 1524.91 583.67 1468.95 529.508 C 1371 434.714 1215.77 435.517 1123.54 537.258 C 1110.87 550.464 1100.3 564.377 1090.19 579.61 C 1080.96 593.51 1076.28 610.147 1063.64 621.33 C 1050.55 632.919 1025.31 628.98 1009.33 625.98 C 990.083 608.374 987.103 589.524 973.163 568.436 C 920.652 489 843.164 452.582 748.783 459.566 C 683.045 462.865 629.935 496.869 585.241 542.994 C 489.144 642.165 485.886 803.92 546.238 922.626 C 586.817 1002.44 648.846 1078.77 708.325 1147.34 C 775.116 1224.98 846.588 1298.46 922.34 1367.38 C 935.86 1379.54 1021.66 1457.1 1033.09 1456.42 C 1052.53 1455.26 1191.16 1320.21 1214.4 1296.93 C 1232.12 1279.17 1248.46 1259.83 1266.67 1242.6 z"/>
</svg>