<svg version="1.1" xmlns="http://www.w3.org/2000/svg" style="display: block;" viewBox="0 0 2048 2048" width="1024" height="1024" preserveAspectRatio="none">
<path transform="translate(0,0)" fill="rgb(184,196,70)" d="M 1024.31 129.5 C 1050.74 129.234 1080.44 129.678 1106.8 132.332 C 1257.09 147.76 1397.71 213.736 1505.64 319.467 C 1702.42 512.902 1762.17 813.786 1657.22 1067.72 C 1619.12 1159.9 1564.14 1239.53 1506.7 1320.33 C 1455.96 1392.15 1402.94 1462.32 1347.71 1530.73 C 1313.28 1572.63 1278.31 1614.08 1242.81 1655.07 L 1171.34 1736.98 C 1146.43 1765.64 1120.58 1794.44 1094.58 1822.18 C 1078.21 1839.65 1064.2 1844.05 1040.77 1843.97 C 1024.38 1842.42 1009.23 1834.81 997.784 1823.17 C 982.084 1807.2 967.001 1789.58 952.12 1772.78 L 867.243 1676.53 C 757.887 1553.64 651.442 1432.95 553.49 1300.55 C 441.878 1149.69 360.717 1012.46 357.546 820.125 C 356.352 638.305 426.266 463.218 552.369 332.228 C 676.053 203.982 846.15 130.915 1024.31 129.5 z M 1061.5 1353.38 C 1607.96 1340.91 1790.44 678.539 1385.48 349.171 C 1282.36 265.299 1148.5 227.497 1016.45 231.022 C 1012.19 231.137 1007.92 231.274 1003.66 231.433 C 842.176 240.64 710.875 308.843 603.947 428.726 C 504.335 539.09 452.685 684.528 460.375 832.999 C 468.542 980.38 547.207 1125.12 656.21 1223.02 C 746.267 1303.91 859.965 1342.36 979.277 1352.42 C 1003.59 1354.47 1036.86 1354.08 1061.5 1353.38 z"/>
<path transform="translate(0,0)" fill="rgb(184,196,70)" d="M 1013.6 588.418 C 1048.75 585.172 1089.06 599.581 1115.1 623.181 C 1139.92 645.597 1154.72 677.023 1156.2 710.435 C 1157.71 744.47 1145.44 777.675 1122.18 802.561 C 1092.87 833.915 1059.29 847.696 1016.75 849.121 C 977.343 849.813 948.271 841.448 917.201 816.359 C 860.682 770.72 862.762 693.381 907.632 640.247 C 935.449 607.309 971.004 592.002 1013.6 588.418 z"/>
<path transform="translate(0,0)" fill="rgb(184,196,70)" d="M 1207.04 1033.36 C 1228.01 1031.37 1247.28 1033.73 1265.12 1045.69 C 1280.13 1055.62 1290.53 1071.16 1293.98 1088.82 C 1304.53 1144.96 1249.06 1187.74 1199.05 1196.68 C 1119.99 1206.14 1083.19 1140.13 1130.79 1077.83 C 1149.17 1053.33 1176.67 1037.3 1207.04 1033.36 z"/>
<path transform="translate(0,0)" fill="rgb(184,196,70)" d="M 761.386 1049.27 C 861.51 1041.31 938.251 1190.96 833.25 1200.58 C 785.181 1204.46 719.304 1161.98 711.267 1112.13 C 705.698 1077.59 728.424 1053.89 761.386 1049.27 z"/>
<path transform="translate(0,0)" fill="rgb(184,196,70)" d="M 1427.98 742.139 C 1506.41 739.118 1532.69 891.899 1445.3 926.12 C 1354.68 939.063 1346.86 762.025 1427.98 742.139 z"/>
<path transform="translate(0,0)" fill="rgb(184,196,70)" d="M 1221.58 377.384 C 1250.31 373.512 1284.09 388.956 1308.8 405.707 C 1333.72 422.593 1372.69 464.541 1351.03 497.836 C 1343.97 508.686 1327.81 512.935 1315.12 514.851 C 1262.95 516.606 1190.38 481.536 1177.92 424.641 C 1171.7 396.239 1195.47 380.338 1221.58 377.384 z"/>
<path transform="translate(0,0)" fill="rgb(184,196,70)" d="M 891.714 355.419 C 995.735 344.116 977.512 470.846 847.98 482.943 C 827.276 483.242 804.921 482.267 788.28 468.427 C 767.579 451.212 778.004 421.858 793.018 404.873 C 817.392 377.298 855.241 358.598 891.714 355.419 z"/>
<path transform="translate(0,0)" fill="rgb(184,196,70)" d="M 631.436 665.236 C 702.977 658.979 711.203 831.727 623.676 845.166 C 590.777 846.535 571.313 816.954 565.769 787.959 C 559.903 756.272 567.005 723.557 585.481 697.154 C 597.07 680.458 611.127 668.851 631.436 665.236 z"/>
</svg>